REM DIRINDEX 1\2\6,1\2\7,1\2\8,1\3\9,1\3\10,1\3\11,1\4\12,1\4\13,1\4\14,1\5\15,1\5\16,1\5\17,1\5\18
REM DIRNAME folder01,folder02,folder03,folder04,folder05,folder06,folder07,folder08,folder09,folder10,folder11,folder12,folder13,folder14,folder15,folder16,folder17,folder18
TITLE ""
FILE "" MP3
  TRACK 01 AUDIO
    TITLE "16:cjc019_6279"
    INDEX 01 00:00:00
  TRACK 02 AUDIO
    TITLE "0:"
    INDEX 01 00:00:68
  TRACK 03 AUDIO
    TITLE "18:cjc019_6280"
    INDEX 01 00:01:52
  TRACK 04 AUDIO
    TITLE "0:"
    INDEX 01 00:02:71
  TRACK 05 AUDIO
    TITLE "17:cjc019_6281"
    INDEX 01 00:03:47
  TRACK 06 AUDIO
    TITLE "0:"
    INDEX 01 00:04:52
  TRACK 07 AUDIO
    TITLE "16:cjc019_6282"
    INDEX 01 00:06:39
  TRACK 08 AUDIO
    TITLE "0:"
    INDEX 01 00:07:66
  TRACK 09 AUDIO
    TITLE "18:cjc019_6283"
    INDEX 01 00:08:50
  TRACK 10 AUDIO
    TITLE "0:"
    INDEX 01 00:11:07
  TRACK 11 AUDIO
    TITLE "17:cjc019_6284"
    INDEX 01 00:11:62
  TRACK 12 AUDIO
    TITLE "0:"
    INDEX 01 00:13:08
  TRACK 13 AUDIO
    TITLE "16:cjc019_6285"
    INDEX 01 00:14:70
  TRACK 14 AUDIO
    TITLE "0:"
    INDEX 01 00:16:18
  TRACK 15 AUDIO
    TITLE "18:cjc019_6286"
    INDEX 01 00:17:04
  TRACK 16 AUDIO
    TITLE "0:"
    INDEX 01 00:22:13
  TRACK 17 AUDIO
    TITLE "17:cjc019_6287"
    INDEX 01 00:22:68
  TRACK 18 AUDIO
    TITLE "0:"
    INDEX 01 00:24:16
  TRACK 19 AUDIO
    TITLE "16:cjc019_6288"
    INDEX 01 00:26:05
  TRACK 20 AUDIO
    TITLE "0:"
    INDEX 01 00:27:28
  TRACK 21 AUDIO
    TITLE "18:cjc019_6289"
    INDEX 01 00:28:17
  TRACK 22 AUDIO
    TITLE "0:"
    INDEX 01 00:30:55
  TRACK 23 AUDIO
    TITLE "17:cjc019_6290"
    INDEX 01 00:31:31
  TRACK 24 AUDIO
    TITLE "0:"
    INDEX 01 00:32:60
  TRACK 25 AUDIO
    TITLE "16:cjc019_6291"
    INDEX 01 00:34:40
  TRACK 26 AUDIO
    TITLE "0:"
    INDEX 01 00:35:49
  TRACK 27 AUDIO
    TITLE "18:cjc019_6292"
    INDEX 01 00:36:35
  TRACK 28 AUDIO
    TITLE "0:"
    INDEX 01 00:40:05
  TRACK 29 AUDIO
    TITLE "17:cjc019_6293"
    INDEX 01 00:40:62
  TRACK 30 AUDIO
    TITLE "0:"
    INDEX 01 00:42:02
  TRACK 31 AUDIO
    TITLE "16:cjc019_6294"
    INDEX 01 00:43:56
  TRACK 32 AUDIO
    TITLE "0:"
    INDEX 01 00:44:63
  TRACK 33 AUDIO
    TITLE "18:cjc019_6295"
    INDEX 01 00:45:45
  TRACK 34 AUDIO
    TITLE "0:"
    INDEX 01 00:48:20
  TRACK 35 AUDIO
    TITLE "17:cjc019_6296"
    INDEX 01 00:48:69
  TRACK 36 AUDIO
    TITLE "0:"
    INDEX 01 00:50:03
  TRACK 37 AUDIO
    TITLE "16:cjc019_6297"
    INDEX 01 00:51:62
  TRACK 38 AUDIO
    TITLE "0:"
    INDEX 01 00:53:11
  TRACK 39 AUDIO
    TITLE "18:cjc019_6298"
    INDEX 01 00:53:70
  TRACK 40 AUDIO
    TITLE "0:"
    INDEX 01 00:56:53
  TRACK 41 AUDIO
    TITLE "17:cjc019_6299"
    INDEX 01 00:57:23
  TRACK 42 AUDIO
    TITLE "0:"
    INDEX 01 00:58:50
  TRACK 43 AUDIO
    TITLE "16:cjc019_6300"
    INDEX 01 01:00:29
  TRACK 44 AUDIO
    TITLE "0:"
    INDEX 01 01:01:34
  TRACK 45 AUDIO
    TITLE "18:cjc019_6301"
    INDEX 01 01:02:12
  TRACK 46 AUDIO
    TITLE "0:"
    INDEX 01 01:04:48
  TRACK 47 AUDIO
    TITLE "17:cjc019_6302"
    INDEX 01 01:05:24
  TRACK 48 AUDIO
    TITLE "0:"
    INDEX 01 01:06:32
  TRACK 49 AUDIO
    TITLE "16:cjc019_6303"
    INDEX 01 01:08:11
  TRACK 50 AUDIO
    TITLE "0:"
    INDEX 01 01:09:26
  TRACK 51 AUDIO
    TITLE "18:cjc019_6304"
    INDEX 01 01:09:73
  TRACK 52 AUDIO
    TITLE "0:"
    INDEX 01 01:13:38
  TRACK 53 AUDIO
    TITLE "17:cjc019_6305"
    INDEX 01 01:14:16
  TRACK 54 AUDIO
    TITLE "0:"
    INDEX 01 01:15:31
  TRACK 55 AUDIO
    TITLE "16:cjc019_6306"
    INDEX 01 01:17:16
  TRACK 56 AUDIO
    TITLE "0:"
    INDEX 01 01:18:29
  TRACK 57 AUDIO
    TITLE "18:cjc019_6307"
    INDEX 01 01:19:17
  TRACK 58 AUDIO
    TITLE "0:"
    INDEX 01 01:22:35
  TRACK 59 AUDIO
    TITLE "17:cjc019_6308"
    INDEX 01 01:23:15
  TRACK 60 AUDIO
    TITLE "0:"
    INDEX 01 01:24:28
  TRACK 61 AUDIO
    TITLE "16:cjc019_6309"
    INDEX 01 01:26:07
  TRACK 62 AUDIO
    TITLE "0:"
    INDEX 01 01:27:28
  TRACK 63 AUDIO
    TITLE "18:cjc019_6310"
    INDEX 01 01:28:10
  TRACK 64 AUDIO
    TITLE "0:"
    INDEX 01 01:31:08
  TRACK 65 AUDIO
    TITLE "17:cjc019_6311"
    INDEX 01 01:31:61
  TRACK 66 AUDIO
    TITLE "0:"
    INDEX 01 01:33:11
  TRACK 67 AUDIO
    TITLE "16:cjc019_6312"
    INDEX 01 01:34:71
  TRACK 68 AUDIO
    TITLE "0:"
    INDEX 01 01:36:15
  TRACK 69 AUDIO
    TITLE "18:cjc019_6313"
    INDEX 01 01:36:74
  TRACK 70 AUDIO
    TITLE "0:"
    INDEX 01 01:39:33
  TRACK 71 AUDIO
    TITLE "17:cjc019_6314"
    INDEX 01 01:40:13
  TRACK 72 AUDIO
    TITLE "0:"
    INDEX 01 01:41:32
  TRACK 73 AUDIO
    TITLE "16:cjc019_6315"
    INDEX 01 01:43:15
  TRACK 74 AUDIO
    TITLE "0:"
    INDEX 01 01:44:24
  TRACK 75 AUDIO
    TITLE "18:cjc019_6316"
    INDEX 01 01:44:73
  TRACK 76 AUDIO
    TITLE "0:"
    INDEX 01 01:51:25
  TRACK 77 AUDIO
    TITLE "17:cjc019_6317"
    INDEX 01 01:52:00
  TRACK 78 AUDIO
    TITLE "0:"
    INDEX 01 01:53:14
  TRACK 79 AUDIO
    TITLE "16:cjc019_6318"
    INDEX 01 01:54:72
  TRACK 80 AUDIO
    TITLE "0:"
    INDEX 01 01:56:14
  TRACK 81 AUDIO
    TITLE "18:cjc019_6319"
    INDEX 01 01:56:69
  TRACK 82 AUDIO
    TITLE "0:"
    INDEX 01 01:59:34
  TRACK 83 AUDIO
    TITLE "17:cjc019_6320"
    INDEX 01 02:00:18
  TRACK 84 AUDIO
    TITLE "0:"
    INDEX 01 02:01:37
  TRACK 85 AUDIO
    TITLE "16:cjc019_6321"
    INDEX 01 02:03:26
  TRACK 86 AUDIO
    TITLE "0:"
    INDEX 01 02:04:47
  TRACK 87 AUDIO
    TITLE "18:cjc019_6322"
    INDEX 01 02:05:31
  TRACK 88 AUDIO
    TITLE "0:"
    INDEX 01 02:11:31
  TRACK 89 AUDIO
    TITLE "17:cjc019_6323"
    INDEX 01 02:12:05
  TRACK 90 AUDIO
    TITLE "0:"
    INDEX 01 02:13:22
  TRACK 91 AUDIO
    TITLE "16:cjc019_6324"
    INDEX 01 02:15:09
  TRACK 92 AUDIO
    TITLE "0:"
    INDEX 01 02:16:17
  TRACK 93 AUDIO
    TITLE "18:cjc019_6325"
    INDEX 01 02:17:00
  TRACK 94 AUDIO
    TITLE "0:"
    INDEX 01 02:18:19
  TRACK 95 AUDIO
    TITLE "17:cjc019_6326"
    INDEX 01 02:19:01
  TRACK 96 AUDIO
    TITLE "0:"
    INDEX 01 02:20:12
  TRACK 97 AUDIO
    TITLE "16:cjc019_6327"
    INDEX 01 02:21:65
  TRACK 98 AUDIO
    TITLE "0:"
    INDEX 01 02:23:11
  TRACK 99 AUDIO
    TITLE "18:cjc019_6328"
    INDEX 01 02:23:70
  TRACK 100 AUDIO
    TITLE "0:"
    INDEX 01 02:26:41
  TRACK 101 AUDIO
    TITLE "17:cjc019_6329"
    INDEX 01 02:27:14
  TRACK 102 AUDIO
    TITLE "0:"
    INDEX 01 02:28:43
  TRACK 103 AUDIO
    TITLE "16:cjc019_6330"
    INDEX 01 02:30:23
  TRACK 104 AUDIO
    TITLE "0:"
    INDEX 01 02:31:51
  TRACK 105 AUDIO
    TITLE "18:cjc019_6331"
    INDEX 01 02:32:35
  TRACK 106 AUDIO
    TITLE "0:"
    INDEX 01 02:33:48
  TRACK 107 AUDIO
    TITLE "17:cjc019_6332"
    INDEX 01 02:34:22
  TRACK 108 AUDIO
    TITLE "0:"
    INDEX 01 02:35:53
